<svg width="347" height="232" viewBox="0 0 347 232" fill="none" xmlns="http://www.w3.org/2000/svg">
<path d="M112.437 173.785V74.2181C117.562 74.3969 122.358 74.7246 126.827 75.2013C131.356 75.6184 135.348 76.0653 138.804 76.542C142.796 77.1378 146.52 77.7337 149.976 78.3295V101.032C145.209 99.6015 139.727 98.3502 133.531 97.2776V187.371C136.748 186.894 139.698 186.328 142.379 185.672C145.12 185.017 147.652 184.332 149.976 183.617V204.71C145.686 205.425 141.783 206.021 138.268 206.497C134.752 206.974 131.475 207.361 128.436 207.659C125.457 207.957 122.656 208.196 120.035 208.374C117.413 208.553 114.88 208.702 112.437 208.821L52.5542 109.433V208.821C50.1112 208.702 47.5788 208.553 44.9571 208.374C42.3353 208.196 39.5348 207.957 36.5556 207.659C33.5763 207.361 30.3289 206.974 26.8134 206.497C23.2978 206.021 19.4248 205.425 15.1942 204.71V182.008C19.6036 183.438 25.0854 184.689 31.6398 185.762V95.4901C28.4818 96.0264 25.5323 96.6222 22.7914 97.2776C20.0504 97.9331 17.5181 98.5885 15.1942 99.244V78.3295C18.531 77.7337 22.1955 77.1378 26.1877 76.542C29.5841 76.0653 33.5465 75.6184 38.075 75.2013C42.6035 74.7246 47.4299 74.3969 52.5542 74.2181L112.437 173.785ZM242.929 70.643C248.888 70.643 254.667 71.0005 260.268 71.7156C265.869 72.4306 271.113 73.4733 275.999 74.8438C280.885 76.1547 285.354 77.7635 289.406 79.6702C293.457 81.5173 296.913 83.6326 299.773 86.016C302.634 88.3994 304.868 91.0212 306.477 93.8813C308.086 96.6818 308.89 99.6611 308.89 102.819V179.505C308.89 182.663 308.086 185.672 306.477 188.532C304.868 191.333 302.634 193.925 299.773 196.308C296.913 198.692 293.457 200.837 289.406 202.744C285.354 204.591 280.885 206.199 275.999 207.57C271.113 208.881 265.869 209.894 260.268 210.609C254.667 211.324 248.888 211.681 242.929 211.681C236.971 211.681 231.191 211.324 225.59 210.609C220.048 209.894 214.835 208.881 209.949 207.57C205.122 206.199 200.683 204.591 196.631 202.744C192.58 200.837 189.094 198.692 186.174 196.308C183.314 193.925 181.08 191.333 179.471 188.532C177.922 185.672 177.147 182.663 177.147 179.505V102.819C177.147 99.6611 177.922 96.6818 179.471 93.8813C181.08 91.0212 183.314 88.3994 186.174 86.016C189.094 83.6326 192.58 81.5173 196.631 79.6702C200.683 77.7635 205.122 76.1547 209.949 74.8438C214.835 73.4733 220.048 72.4306 225.59 71.7156C231.191 71.0005 236.971 70.643 242.929 70.643ZM285.473 109.612C285.473 107.05 284.49 104.636 282.523 102.372C280.557 100.048 277.727 98.0225 274.033 96.2945C270.398 94.5069 265.959 93.1067 260.715 92.0937C255.472 91.0212 249.543 90.4849 242.929 90.4849C236.553 90.4849 230.774 90.9914 225.59 92.0043C220.406 92.9577 215.937 94.2984 212.183 96.0264C208.489 97.7543 205.629 99.7802 203.603 102.104C201.577 104.428 200.564 106.93 200.564 109.612V172.713C200.564 175.334 201.577 177.807 203.603 180.131C205.629 182.455 208.489 184.481 212.183 186.209C215.937 187.937 220.406 189.307 225.59 190.32C230.774 191.333 236.553 191.839 242.929 191.839C249.543 191.839 255.472 191.333 260.715 190.32C265.959 189.247 270.398 187.817 274.033 186.03C277.727 184.242 280.557 182.216 282.523 179.952C284.49 177.628 285.473 175.215 285.473 172.713V109.612Z" fill="white"/>
<g clip-path="url(#clip0_277_131)">
<path d="M307.832 81.1455C313.332 82.4496 321.559 83.2023 323.111 76.6551C323.408 75.562 323.322 76.3909 323.428 60.1167C323.416 56.8079 323.089 55.2302 318.244 51.1795C314.497 47.9882 306.062 42.1852 303.315 41.5337C300.756 40.9268 299.232 44.0474 296.181 43.3238C293.239 42.6262 291.647 39.649 288.9 38.9975C286.262 38.372 284.116 39.7621 281.912 43.1444C274.412 54.7531 274.739 54.2643 274.61 54.9243C273.649 58.9775 286.456 76.0506 307.838 81.121M323.32 79.515C323.228 83.2908 323.137 83.6749 323.024 84.1489C321.565 90.3039 313.836 92.0792 304.738 89.9217C284.184 85.0617 269.036 68.7418 270.923 60.7857C271.184 59.6769 271.67 58.6335 272.35 57.7201C264.869 56.3362 254.985 55.3856 252.982 63.8353C249.7 77.6735 278.447 102.5 304.411 108.657C324.316 113.377 331.471 105.565 333.157 98.4559C334.483 92.8648 331.152 85.3701 323.333 79.5128" fill="black"/>
</g>
<defs>
<clipPath id="clip0_277_131">
<rect width="86" height="86" fill="white" transform="translate(263.082 21.2388) rotate(13.34)"/>
</clipPath>
</defs>
</svg>
