<?xml version="1.0" standalone="no"?>
<!DOCTYPE svg PUBLIC "-//W3C//DTD SVG 20010904//EN"
 "http://www.w3.org/TR/2001/REC-SVG-20010904/DTD/svg10.dtd">
<svg version="1.0" xmlns="http://www.w3.org/2000/svg"
 width="32.000000pt" height="32.000000pt" viewBox="0 0 32.000000 32.000000"
 preserveAspectRatio="xMidYMid meet">

<g transform="translate(0.000000,32.000000) scale(0.100000,-0.100000)"
fill="rgb(0 182 255)" stroke="none">
<path d="M26 291 c-28 -29 -29 -33 -18 -70 28 -91 122 -185 213 -213 37 -11
41 -10 69 17 34 33 38 55 13 77 -28 24 -58 30 -87 16 -25 -11 -30 -9 -68 29
-39 40 -41 43 -28 72 11 26 10 35 -7 63 -25 44 -52 46 -87 9z m70 -16 c15 -23
15 -27 -1 -51 -16 -24 -15 -27 10 -59 14 -19 41 -46 60 -60 32 -25 35 -26 59
-10 24 16 28 16 51 1 14 -9 25 -21 25 -26 0 -14 -38 -50 -52 -50 -57 1 -175
99 -208 173 -25 53 -25 62 0 87 26 26 36 25 56 -5z"/>
<path d="M180 312 c0 -5 14 -15 30 -22 33 -14 75 -58 85 -90 9 -28 28 -25 20
3 -14 48 -64 98 -112 112 -13 3 -23 2 -23 -3z"/>
<path d="M160 252 c0 -4 14 -13 31 -19 19 -8 34 -23 42 -42 12 -33 27 -41 27
-15 0 9 -15 31 -34 50 -31 31 -66 45 -66 26z"/>
</g>
</svg>
